Coordinates
version=1
nRows=16
nColumns=22
inDegrees=yes

Units are S.I. units (second, meters, Newtons, ...)
If the header above contains a line with 'inDegrees', this indicates whether rotational values are in degrees (yes) or radians (no).

endheader
time	pelvis_tilt	pelvis_list	pelvis_rotation	pelvis_tx	pelvis_ty	pelvis_tz	hip_flexion_r	hip_adduction_r	hip_rotation_r	knee_angle_r	ankle_angle_r	subtalar_angle_r	hip_flexion_l	hip_adduction_l	hip_rotation_l	knee_angle_l	ankle_angle_l	subtalar_angle_l	lumbar_extension	lumbar_bending	lumbar_rotation
      0.01000000	     -2.57695955	     -3.42368895	    -13.79830420	     -0.85154628	      0.88219421	      0.84614817	    -17.93070196	     -0.86401748	     12.72198362	    -14.27764215	     10.85841111	      9.61977786	     32.92234479	    -13.65597434	    -26.26369393	    -27.23277073	      2.91531815	     -7.06602304	     -8.74404140	     -2.54556276	     16.58091102
      0.02000000	     -2.51725801	     -3.48503712	    -13.70688612	     -0.84437383	      0.88279176	      0.84507444	    -18.02840751	     -0.84040861	     12.44490561	    -15.01607987	      9.48595094	     10.24979185	     32.78776246	    -13.57401707	    -26.00591783	    -27.87585798	      2.91433796	     -7.81428802	     -8.64683417	     -2.59947249	     16.44132084
      0.03000000	     -2.47206780	     -3.47080446	    -13.59477415	     -0.83554886	      0.88348719	      0.84363288	    -18.00663137	     -0.92499613	     11.98358831	    -16.05037603	      7.87129002	     10.85892236	     32.63125074	    -13.36374576	    -25.68677576	    -28.59415843	      2.86299055	     -8.67371119	     -8.47227495	     -2.74633571	     16.27387634
      0.04000000	     -2.42174001	     -3.37997782	    -13.46414714	     -0.82530916	      0.88430579	      0.84183749	    -17.87460568	     -1.13565525	     11.36324508	    -17.34668318	      5.97223761	     11.42770784	     32.42507432	    -13.02323430	    -25.33333779	    -29.35727758	      2.81181677	     -9.57475270	     -8.24812692	     -2.98426987	     16.08362481
      0.05000000	     -2.37057507	     -3.21145060	    -13.33190428	     -0.81397646	      0.88524994	      0.83973887	    -17.61319829	     -1.47738311	     10.67770320	    -18.87426938	      3.78602465	     11.94775345	     32.15922127	    -12.55798845	    -24.96772164	    -30.11424459	      2.78359402	    -10.47965585	     -7.97736563	     -3.30796624	     15.90292437
      0.06000000	     -2.30588302	     -2.99262101	    -13.15850402	     -0.80188405	      0.88631964	      0.83734212	    -17.23462584	     -1.90454115	      9.94286674	    -20.60334338	      1.35703774	     12.33361717	     31.83324317	    -11.97914522	    -24.56679848	    -30.84216005	      2.78772712	    -11.29264358	     -7.69694112	     -3.68052876	     15.67573421
      0.07000000	     -2.23177624	     -2.74507313	    -12.94377342	     -0.78936088	      0.88754242	      0.83470668	    -16.73403305	     -2.37116011	      9.27296632	    -22.50048677	     -1.31240444	     12.58668352	     31.44109775	    -11.30451154	    -24.10572410	    -31.48741793	      2.80314889	    -11.91196701	     -7.42033729	     -4.07723243	     15.43557520
      0.08000000	     -2.15125812	     -2.50286534	    -12.72311315	     -0.77665077	      0.88891262	      0.83195945	    -16.09838000	     -2.82503733	      8.76608607	    -24.56326853	     -4.18327020	     12.85082879	     30.97865182	    -10.61342017	    -23.68310602	    -32.05979341	      2.92740982	    -12.48246963	     -7.15513540	     -4.45839283	     15.19254274
      0.09000000	     -2.05864693	     -2.29545609	    -12.47557862	     -0.76398095	      0.89042288	      0.82911037	    -15.32294927	     -3.20672887	      8.42194344	    -26.80354801	     -7.19582762	     13.10815897	     30.44673333	     -9.92620157	    -23.26545348	    -32.54288460	      3.14828132	    -12.93259842	     -6.92892932	     -4.78741171	     14.94063705
      0.10000000	     -1.96038908	     -2.13641441	    -12.20039909	     -0.75150934	      0.89205498	      0.82621983	    -14.38850382	     -3.47721254	      8.23915656	    -29.23555055	    -10.29356683	     13.36589650	     29.85203073	     -9.26648406	    -22.85344771	    -32.92540754	      3.46381313	    -13.24912585	     -6.74344921	     -5.05082364	     14.66911398
      0.11000000	     -1.84948140	     -2.02152996	    -11.90084006	     -0.73933658	      0.89378703	      0.82330150	    -13.29366331	     -3.62993352	      8.19430647	    -31.86184757	    -13.41350239	     13.58174223	     29.18752420	     -8.63513345	    -22.46095847	    -33.19815756	      3.84086002	    -13.40696667	     -6.61192785	     -5.25060125	     14.37618867
      0.12000000	     -1.76101387	     -1.94786653	    -11.57467695	     -0.72753198	      0.89550234	      0.82036818	    -11.98976854	     -3.65859158	      8.22679548	    -34.69799852	    -16.46550346	     13.86001675	     28.50714480	     -8.04612414	    -22.09455020	    -33.38470109	      4.34597669	    -13.47740433	     -6.49516214	     -5.38117457	     14.04479984
      0.13000000	     -1.62737025	     -1.87927944	    -11.23255240	     -0.71610365	      0.89729471	      0.81743737	    -10.55811554	     -3.62464372	      8.28257035	    -37.69308760	    -19.41894726	     14.02307893	     27.72440150	     -7.45568504	    -21.79175699	    -33.44368076	      4.81052847	    -13.43760210	     -6.46356752	     -5.50073205	     13.69120964
      0.14000000	     -1.51552248	     -1.80308471	    -10.86861924	     -0.70505419	      0.89898838	      0.81449060	     -8.93547429	     -3.53583531	      8.32448199	    -40.82829814	    -22.15960845	     14.19122053	     26.93705328	     -6.86537448	    -21.53066036	    -33.41964574	      5.34707558	    -13.33102370	     -6.43549056	     -5.60538351	     13.29382177
      0.15000000	     -1.39306375	     -1.70323203	    -10.48590485	     -0.69434289	      0.90062057	      0.81151110	     -7.18526587	     -3.43152971	      8.32770565	    -44.02938595	    -24.61976344	     14.29574817	     26.10393604	     -6.25291780	    -21.32859272	    -33.29695181	      5.90113250	    -13.17161904	     -6.44240252	     -5.71342024	     12.85469159
      0.16000000	     -1.25527485	     -1.56871305	    -10.08365744	     -0.68392173	      0.90219154	      0.80852168	     -5.34196774	     -3.33700666	      8.27590314	    -47.23080034	    -26.73390958	     14.31547855	     25.22365402	     -5.60824911	    -21.17600576	    -33.07984903	      6.43712979	    -12.97567388	     -6.48046245	     -5.84803940	     12.37009989
